<mxfile host="app.diagrams.net" modified="2023-12-04T21:58:27.885Z" agent="Mozilla/5.0 (Macintosh; Intel Mac OS X 10_15_7) AppleWebKit/537.36 (KHTML, like Gecko) Chrome/119.0.0.0 Safari/537.36" etag="N9lSF_cWLcV-zZoa_20j" version="21.7.2" type="github">
  <diagram name="Halaman-1" id="SpSvkP5DoRW-E338OvqQ">
    <mxGraphModel dx="1706" dy="1086" grid="1" gridSize="10" guides="1" tooltips="1" connect="1" arrows="1" fold="1" page="1" pageScale="1" pageWidth="827" pageHeight="1169" math="0" shadow="0">
      <root>
        <mxCell id="0" />
        <mxCell id="1" parent="0" />
        <mxCell id="OLCK0erQXkYcPKT3nIOD-5" value="" style="endArrow=none;html=1;rounded=0;exitX=0.563;exitY=0.97;exitDx=0;exitDy=0;exitPerimeter=0;" edge="1" parent="1" source="BRkl_YbtjnHXMuviLTS4-8">
          <mxGeometry width="50" height="50" relative="1" as="geometry">
            <mxPoint x="1199" y="769.9974058577405" as="sourcePoint" />
            <mxPoint x="1307" y="829.42" as="targetPoint" />
          </mxGeometry>
        </mxCell>
        <mxCell id="BRkl_YbtjnHXMuviLTS4-3" value="Admin" style="shape=umlActor;verticalLabelPosition=bottom;verticalAlign=top;html=1;outlineConnect=0;" parent="1" vertex="1">
          <mxGeometry x="1308" y="563.75" width="30" height="60" as="geometry" />
        </mxCell>
        <mxCell id="BRkl_YbtjnHXMuviLTS4-7" value="User" style="shape=umlActor;verticalLabelPosition=bottom;verticalAlign=top;html=1;outlineConnect=0;" parent="1" vertex="1">
          <mxGeometry x="320" y="558" width="30" height="60" as="geometry" />
        </mxCell>
        <mxCell id="BRkl_YbtjnHXMuviLTS4-40" value="" style="endArrow=none;html=1;rounded=0;entryX=0.006;entryY=0.596;entryDx=0;entryDy=0;entryPerimeter=0;" parent="1" target="BRkl_YbtjnHXMuviLTS4-8" edge="1">
          <mxGeometry width="50" height="50" relative="1" as="geometry">
            <mxPoint x="380" y="590" as="sourcePoint" />
            <mxPoint x="740" y="590" as="targetPoint" />
          </mxGeometry>
        </mxCell>
        <mxCell id="BRkl_YbtjnHXMuviLTS4-41" value="" style="endArrow=none;html=1;rounded=0;" parent="1" edge="1">
          <mxGeometry width="50" height="50" relative="1" as="geometry">
            <mxPoint x="850.62" y="592.33" as="sourcePoint" />
            <mxPoint x="1290" y="590" as="targetPoint" />
          </mxGeometry>
        </mxCell>
        <mxCell id="BRkl_YbtjnHXMuviLTS4-42" value="" style="endArrow=none;html=1;rounded=0;exitX=1;exitY=0.5;exitDx=0;exitDy=0;" parent="1" source="BRkl_YbtjnHXMuviLTS4-15" edge="1">
          <mxGeometry width="50" height="50" relative="1" as="geometry">
            <mxPoint x="1120" y="519.6600000000001" as="sourcePoint" />
            <mxPoint x="1290" y="590" as="targetPoint" />
          </mxGeometry>
        </mxCell>
        <mxCell id="BRkl_YbtjnHXMuviLTS4-43" value="" style="endArrow=none;html=1;rounded=0;exitX=1;exitY=0.5;exitDx=0;exitDy=0;" parent="1" source="BRkl_YbtjnHXMuviLTS4-14" edge="1">
          <mxGeometry width="50" height="50" relative="1" as="geometry">
            <mxPoint x="1120" y="410.0000000000001" as="sourcePoint" />
            <mxPoint x="1290" y="590" as="targetPoint" />
          </mxGeometry>
        </mxCell>
        <mxCell id="BRkl_YbtjnHXMuviLTS4-44" value="" style="endArrow=none;html=1;rounded=0;exitX=0.708;exitY=0.928;exitDx=0;exitDy=0;exitPerimeter=0;" parent="1" source="BRkl_YbtjnHXMuviLTS4-12" edge="1">
          <mxGeometry width="50" height="50" relative="1" as="geometry">
            <mxPoint x="1120" y="300.0000000000001" as="sourcePoint" />
            <mxPoint x="1290" y="590" as="targetPoint" />
          </mxGeometry>
        </mxCell>
        <mxCell id="BRkl_YbtjnHXMuviLTS4-45" value="" style="endArrow=none;html=1;rounded=0;exitX=0.929;exitY=0.267;exitDx=0;exitDy=0;exitPerimeter=0;" parent="1" source="BRkl_YbtjnHXMuviLTS4-16" edge="1">
          <mxGeometry width="50" height="50" relative="1" as="geometry">
            <mxPoint x="1120" y="660.0000000000001" as="sourcePoint" />
            <mxPoint x="1290" y="590" as="targetPoint" />
          </mxGeometry>
        </mxCell>
        <mxCell id="BRkl_YbtjnHXMuviLTS4-46" value="" style="endArrow=none;html=1;rounded=0;exitX=0.804;exitY=0.078;exitDx=0;exitDy=0;exitPerimeter=0;" parent="1" source="BRkl_YbtjnHXMuviLTS4-17" edge="1">
          <mxGeometry width="50" height="50" relative="1" as="geometry">
            <mxPoint x="1120" y="770.0000000000001" as="sourcePoint" />
            <mxPoint x="1290" y="590" as="targetPoint" />
          </mxGeometry>
        </mxCell>
        <mxCell id="BRkl_YbtjnHXMuviLTS4-48" value="" style="endArrow=none;html=1;rounded=0;exitX=1;exitY=0.5;exitDx=0;exitDy=0;" parent="1" source="BRkl_YbtjnHXMuviLTS4-20" edge="1">
          <mxGeometry width="50" height="50" relative="1" as="geometry">
            <mxPoint x="861.25" y="320.0000000000001" as="sourcePoint" />
            <mxPoint x="1290" y="590" as="targetPoint" />
          </mxGeometry>
        </mxCell>
        <mxCell id="BRkl_YbtjnHXMuviLTS4-51" value="" style="endArrow=none;html=1;rounded=0;entryX=0.063;entryY=0.278;entryDx=0;entryDy=0;entryPerimeter=0;" parent="1" target="BRkl_YbtjnHXMuviLTS4-21" edge="1">
          <mxGeometry width="50" height="50" relative="1" as="geometry">
            <mxPoint x="380" y="590" as="sourcePoint" />
            <mxPoint x="500" y="880" as="targetPoint" />
          </mxGeometry>
        </mxCell>
        <mxCell id="BRkl_YbtjnHXMuviLTS4-52" value="" style="endArrow=none;html=1;rounded=0;entryX=0;entryY=0.5;entryDx=0;entryDy=0;" parent="1" target="BRkl_YbtjnHXMuviLTS4-19" edge="1">
          <mxGeometry width="50" height="50" relative="1" as="geometry">
            <mxPoint x="380" y="590" as="sourcePoint" />
            <mxPoint x="550" y="843.5" as="targetPoint" />
          </mxGeometry>
        </mxCell>
        <mxCell id="BRkl_YbtjnHXMuviLTS4-53" value="" style="endArrow=none;html=1;rounded=0;entryX=0.075;entryY=0.767;entryDx=0;entryDy=0;entryPerimeter=0;" parent="1" target="BRkl_YbtjnHXMuviLTS4-20" edge="1">
          <mxGeometry width="50" height="50" relative="1" as="geometry">
            <mxPoint x="380" y="590" as="sourcePoint" />
            <mxPoint x="691" y="725" as="targetPoint" />
          </mxGeometry>
        </mxCell>
        <mxCell id="BRkl_YbtjnHXMuviLTS4-59" value="" style="swimlane;startSize=0;" parent="1" vertex="1">
          <mxGeometry x="460" y="128" width="740" height="852" as="geometry" />
        </mxCell>
        <mxCell id="BRkl_YbtjnHXMuviLTS4-27" value="Melihat detail pesanan" style="ellipse;whiteSpace=wrap;html=1;" parent="BRkl_YbtjnHXMuviLTS4-59" vertex="1">
          <mxGeometry x="153" y="630" width="101.25" height="50" as="geometry" />
        </mxCell>
        <mxCell id="BRkl_YbtjnHXMuviLTS4-19" value="Melakukan pemesanan" style="ellipse;whiteSpace=wrap;html=1;" parent="BRkl_YbtjnHXMuviLTS4-59" vertex="1">
          <mxGeometry x="173" y="520" width="170" height="60" as="geometry" />
        </mxCell>
        <mxCell id="BRkl_YbtjnHXMuviLTS4-62" value="&lt;font style=&quot;font-size: 10px;&quot;&gt;&amp;lt;&amp;lt; extend &amp;gt;&amp;gt;&lt;/font&gt;" style="endArrow=open;endSize=12;dashed=1;html=1;rounded=0;exitX=0.356;exitY=0.013;exitDx=0;exitDy=0;entryX=0.5;entryY=1;entryDx=0;entryDy=0;exitPerimeter=0;" parent="BRkl_YbtjnHXMuviLTS4-59" source="BRkl_YbtjnHXMuviLTS4-27" target="BRkl_YbtjnHXMuviLTS4-19" edge="1">
          <mxGeometry width="160" relative="1" as="geometry">
            <mxPoint x="135.87" y="614" as="sourcePoint" />
            <mxPoint x="199.87" y="540" as="targetPoint" />
          </mxGeometry>
        </mxCell>
        <mxCell id="BRkl_YbtjnHXMuviLTS4-63" value="&lt;font style=&quot;font-size: 10px;&quot;&gt;&amp;lt;&amp;lt; extend &amp;gt;&amp;gt;&lt;/font&gt;" style="endArrow=open;endSize=12;dashed=1;html=1;rounded=0;exitX=0.994;exitY=0.68;exitDx=0;exitDy=0;exitPerimeter=0;" parent="BRkl_YbtjnHXMuviLTS4-59" target="BRkl_YbtjnHXMuviLTS4-19" edge="1">
          <mxGeometry width="160" relative="1" as="geometry">
            <mxPoint x="163.64249999999993" y="604" as="sourcePoint" />
            <mxPoint x="197" y="506" as="targetPoint" />
          </mxGeometry>
        </mxCell>
        <mxCell id="BRkl_YbtjnHXMuviLTS4-28" value="Melihat status pesanan" style="ellipse;whiteSpace=wrap;html=1;" parent="BRkl_YbtjnHXMuviLTS4-59" vertex="1">
          <mxGeometry x="73" y="450" width="101.25" height="50" as="geometry" />
        </mxCell>
        <mxCell id="BRkl_YbtjnHXMuviLTS4-64" value="&lt;font style=&quot;font-size: 10px;&quot;&gt;&amp;lt;&amp;lt; extend &amp;gt;&amp;gt;&lt;/font&gt;" style="endArrow=open;endSize=12;dashed=1;html=1;rounded=0;exitX=0.724;exitY=0.04;exitDx=0;exitDy=0;entryX=0.5;entryY=0;entryDx=0;entryDy=0;exitPerimeter=0;" parent="BRkl_YbtjnHXMuviLTS4-59" target="BRkl_YbtjnHXMuviLTS4-19" edge="1">
          <mxGeometry width="160" relative="1" as="geometry">
            <mxPoint x="146.30499999999984" y="472" as="sourcePoint" />
            <mxPoint x="227" y="408" as="targetPoint" />
          </mxGeometry>
        </mxCell>
        <mxCell id="BRkl_YbtjnHXMuviLTS4-25" value="Mengisi form pemesanan" style="ellipse;whiteSpace=wrap;html=1;" parent="BRkl_YbtjnHXMuviLTS4-59" vertex="1">
          <mxGeometry x="63" y="550" width="101.25" height="50" as="geometry" />
        </mxCell>
        <mxCell id="BRkl_YbtjnHXMuviLTS4-12" value="Mengelola data user&lt;br&gt;(create, read, update, delete)" style="ellipse;whiteSpace=wrap;html=1;" parent="BRkl_YbtjnHXMuviLTS4-59" vertex="1">
          <mxGeometry x="483" y="70" width="170" height="60" as="geometry" />
        </mxCell>
        <mxCell id="BRkl_YbtjnHXMuviLTS4-14" value="Mengelola data kategori&lt;br&gt;(create, read, update, delete)" style="ellipse;whiteSpace=wrap;html=1;" parent="BRkl_YbtjnHXMuviLTS4-59" vertex="1">
          <mxGeometry x="483" y="220" width="170" height="60" as="geometry" />
        </mxCell>
        <mxCell id="BRkl_YbtjnHXMuviLTS4-29" style="edgeStyle=orthogonalEdgeStyle;rounded=0;orthogonalLoop=1;jettySize=auto;html=1;exitX=0.5;exitY=1;exitDx=0;exitDy=0;" parent="BRkl_YbtjnHXMuviLTS4-59" source="BRkl_YbtjnHXMuviLTS4-14" target="BRkl_YbtjnHXMuviLTS4-14" edge="1">
          <mxGeometry relative="1" as="geometry" />
        </mxCell>
        <mxCell id="BRkl_YbtjnHXMuviLTS4-11" value="Registrasi" style="ellipse;whiteSpace=wrap;html=1;" parent="BRkl_YbtjnHXMuviLTS4-59" vertex="1">
          <mxGeometry x="307.38" y="240" width="111.25" height="65" as="geometry" />
        </mxCell>
        <mxCell id="BRkl_YbtjnHXMuviLTS4-8" value="Login" style="ellipse;whiteSpace=wrap;html=1;" parent="BRkl_YbtjnHXMuviLTS4-59" vertex="1">
          <mxGeometry x="307.38" y="426.25" width="111.25" height="57.5" as="geometry" />
        </mxCell>
        <mxCell id="BRkl_YbtjnHXMuviLTS4-9" value="&amp;lt;&amp;lt; include &amp;gt;&amp;gt;" style="endArrow=open;endSize=12;dashed=1;html=1;rounded=0;entryX=0.5;entryY=1;entryDx=0;entryDy=0;exitX=0.5;exitY=0;exitDx=0;exitDy=0;" parent="BRkl_YbtjnHXMuviLTS4-59" source="BRkl_YbtjnHXMuviLTS4-8" target="BRkl_YbtjnHXMuviLTS4-11" edge="1">
          <mxGeometry width="160" relative="1" as="geometry">
            <mxPoint x="298" y="390" as="sourcePoint" />
            <mxPoint x="463" y="402.5" as="targetPoint" />
          </mxGeometry>
        </mxCell>
        <mxCell id="BRkl_YbtjnHXMuviLTS4-23" value="Melihat detail produk" style="ellipse;whiteSpace=wrap;html=1;" parent="BRkl_YbtjnHXMuviLTS4-59" vertex="1">
          <mxGeometry x="130" y="50" width="91.25" height="50" as="geometry" />
        </mxCell>
        <mxCell id="BRkl_YbtjnHXMuviLTS4-21" value="Melakukan pembayaran" style="ellipse;whiteSpace=wrap;html=1;" parent="BRkl_YbtjnHXMuviLTS4-59" vertex="1">
          <mxGeometry x="174.25" y="730" width="170" height="60" as="geometry" />
        </mxCell>
        <mxCell id="BRkl_YbtjnHXMuviLTS4-15" value="Mengelola data produk&lt;br&gt;(create, read, update, delete)" style="ellipse;whiteSpace=wrap;html=1;" parent="BRkl_YbtjnHXMuviLTS4-59" vertex="1">
          <mxGeometry x="491" y="358" width="170" height="60" as="geometry" />
        </mxCell>
        <mxCell id="BRkl_YbtjnHXMuviLTS4-16" value="Mengelola data pesanan&lt;br&gt;(create, read, update, delete)" style="ellipse;whiteSpace=wrap;html=1;" parent="BRkl_YbtjnHXMuviLTS4-59" vertex="1">
          <mxGeometry x="493" y="532" width="170" height="60" as="geometry" />
        </mxCell>
        <mxCell id="BRkl_YbtjnHXMuviLTS4-17" value="Mengelola data pembayaran&lt;br&gt;(create, read, update, delete)" style="ellipse;whiteSpace=wrap;html=1;" parent="BRkl_YbtjnHXMuviLTS4-59" vertex="1">
          <mxGeometry x="474.5" y="730" width="207" height="60" as="geometry" />
        </mxCell>
        <mxCell id="BRkl_YbtjnHXMuviLTS4-20" value="Melihat produk" style="ellipse;whiteSpace=wrap;html=1;" parent="BRkl_YbtjnHXMuviLTS4-59" vertex="1">
          <mxGeometry x="278" y="100" width="170" height="60" as="geometry" />
        </mxCell>
        <mxCell id="BRkl_YbtjnHXMuviLTS4-38" value="&lt;font style=&quot;font-size: 9px;&quot;&gt;&amp;lt;&amp;lt; extend &amp;gt;&amp;gt;&lt;/font&gt;" style="endArrow=open;endSize=12;dashed=1;html=1;rounded=0;exitX=0.961;exitY=0.661;exitDx=0;exitDy=0;exitPerimeter=0;" parent="BRkl_YbtjnHXMuviLTS4-59" source="BRkl_YbtjnHXMuviLTS4-23" target="BRkl_YbtjnHXMuviLTS4-20" edge="1">
          <mxGeometry width="160" relative="1" as="geometry">
            <mxPoint x="134.25" y="156" as="sourcePoint" />
            <mxPoint x="223" y="180" as="targetPoint" />
          </mxGeometry>
        </mxCell>
        <mxCell id="BRkl_YbtjnHXMuviLTS4-37" value="Konfirmasi pembayaran" style="ellipse;whiteSpace=wrap;html=1;" parent="BRkl_YbtjnHXMuviLTS4-59" vertex="1">
          <mxGeometry x="367" y="652" width="93" height="38" as="geometry" />
        </mxCell>
        <mxCell id="BRkl_YbtjnHXMuviLTS4-54" value="&lt;font style=&quot;font-size: 10px;&quot;&gt;&amp;lt;&amp;lt; extend &amp;gt;&amp;gt;&lt;/font&gt;" style="endArrow=open;endSize=12;dashed=1;html=1;rounded=0;exitX=1;exitY=0.5;exitDx=0;exitDy=0;entryX=0.275;entryY=0.047;entryDx=0;entryDy=0;entryPerimeter=0;" parent="BRkl_YbtjnHXMuviLTS4-59" source="BRkl_YbtjnHXMuviLTS4-37" target="BRkl_YbtjnHXMuviLTS4-17" edge="1">
          <mxGeometry width="160" relative="1" as="geometry">
            <mxPoint x="443" y="676" as="sourcePoint" />
            <mxPoint x="518" y="712" as="targetPoint" />
          </mxGeometry>
        </mxCell>
        <mxCell id="BRkl_YbtjnHXMuviLTS4-56" value="&lt;font style=&quot;font-size: 10px;&quot;&gt;&amp;lt;&amp;lt; extend &amp;gt;&amp;gt;&lt;/font&gt;" style="endArrow=open;endSize=12;dashed=1;html=1;rounded=0;entryX=0.81;entryY=0.098;entryDx=0;entryDy=0;entryPerimeter=0;exitX=0.053;exitY=0.746;exitDx=0;exitDy=0;exitPerimeter=0;" parent="BRkl_YbtjnHXMuviLTS4-59" source="BRkl_YbtjnHXMuviLTS4-37" target="BRkl_YbtjnHXMuviLTS4-21" edge="1">
          <mxGeometry width="160" relative="1" as="geometry">
            <mxPoint x="326.7464539007092" y="890" as="sourcePoint" />
            <mxPoint x="343" y="712" as="targetPoint" />
          </mxGeometry>
        </mxCell>
        <mxCell id="OLCK0erQXkYcPKT3nIOD-6" value="" style="endArrow=none;html=1;rounded=0;" edge="1" parent="BRkl_YbtjnHXMuviLTS4-59">
          <mxGeometry width="50" height="50" relative="1" as="geometry">
            <mxPoint x="680" y="752" as="sourcePoint" />
            <mxPoint x="850" y="702" as="targetPoint" />
          </mxGeometry>
        </mxCell>
        <mxCell id="OLCK0erQXkYcPKT3nIOD-1" value="Kasir" style="shape=umlActor;verticalLabelPosition=bottom;verticalAlign=top;html=1;outlineConnect=0;" vertex="1" parent="1">
          <mxGeometry x="1308" y="800" width="30" height="60" as="geometry" />
        </mxCell>
        <mxCell id="OLCK0erQXkYcPKT3nIOD-4" value="" style="endArrow=none;html=1;rounded=0;exitX=1;exitY=1;exitDx=0;exitDy=0;" edge="1" parent="1" source="BRkl_YbtjnHXMuviLTS4-16">
          <mxGeometry width="50" height="50" relative="1" as="geometry">
            <mxPoint x="1139" y="1108" as="sourcePoint" />
            <mxPoint x="1308" y="830" as="targetPoint" />
          </mxGeometry>
        </mxCell>
        <mxCell id="OLCK0erQXkYcPKT3nIOD-94" value="" style="endArrow=none;html=1;rounded=0;exitX=0.563;exitY=0.97;exitDx=0;exitDy=0;exitPerimeter=0;" edge="1" parent="1" source="OLCK0erQXkYcPKT3nIOD-121">
          <mxGeometry width="50" height="50" relative="1" as="geometry">
            <mxPoint x="2569" y="771.9974058577405" as="sourcePoint" />
            <mxPoint x="2677" y="831.42" as="targetPoint" />
          </mxGeometry>
        </mxCell>
        <mxCell id="OLCK0erQXkYcPKT3nIOD-95" value="Admin" style="shape=umlActor;verticalLabelPosition=bottom;verticalAlign=top;html=1;outlineConnect=0;" vertex="1" parent="1">
          <mxGeometry x="2678" y="565.75" width="30" height="60" as="geometry" />
        </mxCell>
        <mxCell id="OLCK0erQXkYcPKT3nIOD-96" value="User" style="shape=umlActor;verticalLabelPosition=bottom;verticalAlign=top;html=1;outlineConnect=0;" vertex="1" parent="1">
          <mxGeometry x="1690" y="560" width="30" height="60" as="geometry" />
        </mxCell>
        <mxCell id="OLCK0erQXkYcPKT3nIOD-97" value="" style="endArrow=none;html=1;rounded=0;entryX=0.006;entryY=0.596;entryDx=0;entryDy=0;entryPerimeter=0;" edge="1" parent="1" target="OLCK0erQXkYcPKT3nIOD-121">
          <mxGeometry width="50" height="50" relative="1" as="geometry">
            <mxPoint x="1750" y="592" as="sourcePoint" />
            <mxPoint x="2110" y="592" as="targetPoint" />
          </mxGeometry>
        </mxCell>
        <mxCell id="OLCK0erQXkYcPKT3nIOD-98" value="" style="endArrow=none;html=1;rounded=0;" edge="1" parent="1">
          <mxGeometry width="50" height="50" relative="1" as="geometry">
            <mxPoint x="2220.62" y="594.33" as="sourcePoint" />
            <mxPoint x="2660" y="592" as="targetPoint" />
          </mxGeometry>
        </mxCell>
        <mxCell id="OLCK0erQXkYcPKT3nIOD-99" value="" style="endArrow=none;html=1;rounded=0;exitX=1;exitY=0.5;exitDx=0;exitDy=0;" edge="1" parent="1" source="OLCK0erQXkYcPKT3nIOD-125">
          <mxGeometry width="50" height="50" relative="1" as="geometry">
            <mxPoint x="2490" y="521.6600000000001" as="sourcePoint" />
            <mxPoint x="2660" y="592" as="targetPoint" />
          </mxGeometry>
        </mxCell>
        <mxCell id="OLCK0erQXkYcPKT3nIOD-100" value="" style="endArrow=none;html=1;rounded=0;exitX=1;exitY=0.5;exitDx=0;exitDy=0;" edge="1" parent="1" source="OLCK0erQXkYcPKT3nIOD-118">
          <mxGeometry width="50" height="50" relative="1" as="geometry">
            <mxPoint x="2490" y="412.0000000000001" as="sourcePoint" />
            <mxPoint x="2660" y="592" as="targetPoint" />
          </mxGeometry>
        </mxCell>
        <mxCell id="OLCK0erQXkYcPKT3nIOD-101" value="" style="endArrow=none;html=1;rounded=0;exitX=0.708;exitY=0.928;exitDx=0;exitDy=0;exitPerimeter=0;" edge="1" parent="1" source="OLCK0erQXkYcPKT3nIOD-117">
          <mxGeometry width="50" height="50" relative="1" as="geometry">
            <mxPoint x="2490" y="302.0000000000001" as="sourcePoint" />
            <mxPoint x="2660" y="592" as="targetPoint" />
          </mxGeometry>
        </mxCell>
        <mxCell id="OLCK0erQXkYcPKT3nIOD-102" value="" style="endArrow=none;html=1;rounded=0;exitX=0.929;exitY=0.267;exitDx=0;exitDy=0;exitPerimeter=0;" edge="1" parent="1" source="OLCK0erQXkYcPKT3nIOD-126">
          <mxGeometry width="50" height="50" relative="1" as="geometry">
            <mxPoint x="2490" y="662.0000000000001" as="sourcePoint" />
            <mxPoint x="2660" y="592" as="targetPoint" />
          </mxGeometry>
        </mxCell>
        <mxCell id="OLCK0erQXkYcPKT3nIOD-103" value="" style="endArrow=none;html=1;rounded=0;exitX=0.804;exitY=0.078;exitDx=0;exitDy=0;exitPerimeter=0;" edge="1" parent="1" source="OLCK0erQXkYcPKT3nIOD-127">
          <mxGeometry width="50" height="50" relative="1" as="geometry">
            <mxPoint x="2490" y="772.0000000000001" as="sourcePoint" />
            <mxPoint x="2660" y="592" as="targetPoint" />
          </mxGeometry>
        </mxCell>
        <mxCell id="OLCK0erQXkYcPKT3nIOD-104" value="" style="endArrow=none;html=1;rounded=0;exitX=1;exitY=0;exitDx=0;exitDy=0;" edge="1" parent="1" source="OLCK0erQXkYcPKT3nIOD-128">
          <mxGeometry width="50" height="50" relative="1" as="geometry">
            <mxPoint x="2515" y="892.0000000000001" as="sourcePoint" />
            <mxPoint x="2660" y="592" as="targetPoint" />
          </mxGeometry>
        </mxCell>
        <mxCell id="OLCK0erQXkYcPKT3nIOD-105" value="" style="endArrow=none;html=1;rounded=0;exitX=1;exitY=0.5;exitDx=0;exitDy=0;" edge="1" parent="1" source="OLCK0erQXkYcPKT3nIOD-129">
          <mxGeometry width="50" height="50" relative="1" as="geometry">
            <mxPoint x="2231.25" y="322.0000000000001" as="sourcePoint" />
            <mxPoint x="2660" y="592" as="targetPoint" />
          </mxGeometry>
        </mxCell>
        <mxCell id="OLCK0erQXkYcPKT3nIOD-106" value="" style="endArrow=none;html=1;rounded=0;entryX=0.063;entryY=0.278;entryDx=0;entryDy=0;entryPerimeter=0;" edge="1" parent="1" target="OLCK0erQXkYcPKT3nIOD-124">
          <mxGeometry width="50" height="50" relative="1" as="geometry">
            <mxPoint x="1750" y="592" as="sourcePoint" />
            <mxPoint x="1870" y="882" as="targetPoint" />
          </mxGeometry>
        </mxCell>
        <mxCell id="OLCK0erQXkYcPKT3nIOD-107" value="" style="endArrow=none;html=1;rounded=0;entryX=0;entryY=0.5;entryDx=0;entryDy=0;" edge="1" parent="1" target="OLCK0erQXkYcPKT3nIOD-111">
          <mxGeometry width="50" height="50" relative="1" as="geometry">
            <mxPoint x="1750" y="592" as="sourcePoint" />
            <mxPoint x="1920" y="845.5" as="targetPoint" />
          </mxGeometry>
        </mxCell>
        <mxCell id="OLCK0erQXkYcPKT3nIOD-108" value="" style="endArrow=none;html=1;rounded=0;entryX=0.075;entryY=0.767;entryDx=0;entryDy=0;entryPerimeter=0;" edge="1" parent="1" target="OLCK0erQXkYcPKT3nIOD-129">
          <mxGeometry width="50" height="50" relative="1" as="geometry">
            <mxPoint x="1750" y="592" as="sourcePoint" />
            <mxPoint x="2061" y="727" as="targetPoint" />
          </mxGeometry>
        </mxCell>
        <mxCell id="OLCK0erQXkYcPKT3nIOD-109" value="" style="swimlane;startSize=0;" vertex="1" parent="1">
          <mxGeometry x="1830" y="130" width="740" height="920" as="geometry" />
        </mxCell>
        <mxCell id="OLCK0erQXkYcPKT3nIOD-110" value="Melihat detail pesanan" style="ellipse;whiteSpace=wrap;html=1;" vertex="1" parent="OLCK0erQXkYcPKT3nIOD-109">
          <mxGeometry x="153" y="630" width="101.25" height="50" as="geometry" />
        </mxCell>
        <mxCell id="OLCK0erQXkYcPKT3nIOD-111" value="Melakukan pemesanan" style="ellipse;whiteSpace=wrap;html=1;" vertex="1" parent="OLCK0erQXkYcPKT3nIOD-109">
          <mxGeometry x="173" y="520" width="170" height="60" as="geometry" />
        </mxCell>
        <mxCell id="OLCK0erQXkYcPKT3nIOD-112" value="&lt;font style=&quot;font-size: 10px;&quot;&gt;&amp;lt;&amp;lt; extend &amp;gt;&amp;gt;&lt;/font&gt;" style="endArrow=open;endSize=12;dashed=1;html=1;rounded=0;exitX=0.356;exitY=0.013;exitDx=0;exitDy=0;entryX=0.5;entryY=1;entryDx=0;entryDy=0;exitPerimeter=0;" edge="1" parent="OLCK0erQXkYcPKT3nIOD-109" source="OLCK0erQXkYcPKT3nIOD-110" target="OLCK0erQXkYcPKT3nIOD-111">
          <mxGeometry width="160" relative="1" as="geometry">
            <mxPoint x="135.87" y="614" as="sourcePoint" />
            <mxPoint x="199.87" y="540" as="targetPoint" />
          </mxGeometry>
        </mxCell>
        <mxCell id="OLCK0erQXkYcPKT3nIOD-113" value="&lt;font style=&quot;font-size: 10px;&quot;&gt;&amp;lt;&amp;lt; extend &amp;gt;&amp;gt;&lt;/font&gt;" style="endArrow=open;endSize=12;dashed=1;html=1;rounded=0;exitX=0.994;exitY=0.68;exitDx=0;exitDy=0;exitPerimeter=0;" edge="1" parent="OLCK0erQXkYcPKT3nIOD-109" target="OLCK0erQXkYcPKT3nIOD-111">
          <mxGeometry width="160" relative="1" as="geometry">
            <mxPoint x="163.64249999999993" y="604" as="sourcePoint" />
            <mxPoint x="197" y="506" as="targetPoint" />
          </mxGeometry>
        </mxCell>
        <mxCell id="OLCK0erQXkYcPKT3nIOD-114" value="Melihat status pesanan" style="ellipse;whiteSpace=wrap;html=1;" vertex="1" parent="OLCK0erQXkYcPKT3nIOD-109">
          <mxGeometry x="73" y="450" width="101.25" height="50" as="geometry" />
        </mxCell>
        <mxCell id="OLCK0erQXkYcPKT3nIOD-115" value="&lt;font style=&quot;font-size: 10px;&quot;&gt;&amp;lt;&amp;lt; extend &amp;gt;&amp;gt;&lt;/font&gt;" style="endArrow=open;endSize=12;dashed=1;html=1;rounded=0;exitX=0.724;exitY=0.04;exitDx=0;exitDy=0;entryX=0.5;entryY=0;entryDx=0;entryDy=0;exitPerimeter=0;" edge="1" parent="OLCK0erQXkYcPKT3nIOD-109" target="OLCK0erQXkYcPKT3nIOD-111">
          <mxGeometry width="160" relative="1" as="geometry">
            <mxPoint x="146.30499999999984" y="472" as="sourcePoint" />
            <mxPoint x="227" y="408" as="targetPoint" />
          </mxGeometry>
        </mxCell>
        <mxCell id="OLCK0erQXkYcPKT3nIOD-116" value="Mengisi form pemesanan" style="ellipse;whiteSpace=wrap;html=1;" vertex="1" parent="OLCK0erQXkYcPKT3nIOD-109">
          <mxGeometry x="63" y="550" width="101.25" height="50" as="geometry" />
        </mxCell>
        <mxCell id="OLCK0erQXkYcPKT3nIOD-117" value="Mengelola data user&lt;br&gt;(create, read, update, delete)" style="ellipse;whiteSpace=wrap;html=1;" vertex="1" parent="OLCK0erQXkYcPKT3nIOD-109">
          <mxGeometry x="483" y="70" width="170" height="60" as="geometry" />
        </mxCell>
        <mxCell id="OLCK0erQXkYcPKT3nIOD-118" value="Mengelola data kategori&lt;br&gt;(create, read, update, delete)" style="ellipse;whiteSpace=wrap;html=1;" vertex="1" parent="OLCK0erQXkYcPKT3nIOD-109">
          <mxGeometry x="483" y="220" width="170" height="60" as="geometry" />
        </mxCell>
        <mxCell id="OLCK0erQXkYcPKT3nIOD-119" style="edgeStyle=orthogonalEdgeStyle;rounded=0;orthogonalLoop=1;jettySize=auto;html=1;exitX=0.5;exitY=1;exitDx=0;exitDy=0;" edge="1" parent="OLCK0erQXkYcPKT3nIOD-109" source="OLCK0erQXkYcPKT3nIOD-118" target="OLCK0erQXkYcPKT3nIOD-118">
          <mxGeometry relative="1" as="geometry" />
        </mxCell>
        <mxCell id="OLCK0erQXkYcPKT3nIOD-120" value="Registrasi" style="ellipse;whiteSpace=wrap;html=1;" vertex="1" parent="OLCK0erQXkYcPKT3nIOD-109">
          <mxGeometry x="307.38" y="240" width="111.25" height="65" as="geometry" />
        </mxCell>
        <mxCell id="OLCK0erQXkYcPKT3nIOD-121" value="Login" style="ellipse;whiteSpace=wrap;html=1;" vertex="1" parent="OLCK0erQXkYcPKT3nIOD-109">
          <mxGeometry x="307.38" y="426.25" width="111.25" height="57.5" as="geometry" />
        </mxCell>
        <mxCell id="OLCK0erQXkYcPKT3nIOD-122" value="&amp;lt;&amp;lt; include &amp;gt;&amp;gt;" style="endArrow=open;endSize=12;dashed=1;html=1;rounded=0;entryX=0.5;entryY=1;entryDx=0;entryDy=0;exitX=0.5;exitY=0;exitDx=0;exitDy=0;" edge="1" parent="OLCK0erQXkYcPKT3nIOD-109" source="OLCK0erQXkYcPKT3nIOD-121" target="OLCK0erQXkYcPKT3nIOD-120">
          <mxGeometry width="160" relative="1" as="geometry">
            <mxPoint x="298" y="390" as="sourcePoint" />
            <mxPoint x="463" y="402.5" as="targetPoint" />
          </mxGeometry>
        </mxCell>
        <mxCell id="OLCK0erQXkYcPKT3nIOD-123" value="Melihat detail produk" style="ellipse;whiteSpace=wrap;html=1;" vertex="1" parent="OLCK0erQXkYcPKT3nIOD-109">
          <mxGeometry x="130" y="50" width="91.25" height="50" as="geometry" />
        </mxCell>
        <mxCell id="OLCK0erQXkYcPKT3nIOD-124" value="Melakukan pembayaran" style="ellipse;whiteSpace=wrap;html=1;" vertex="1" parent="OLCK0erQXkYcPKT3nIOD-109">
          <mxGeometry x="174.25" y="730" width="170" height="60" as="geometry" />
        </mxCell>
        <mxCell id="OLCK0erQXkYcPKT3nIOD-125" value="Mengelola data produk&lt;br&gt;(create, read, update, delete)" style="ellipse;whiteSpace=wrap;html=1;" vertex="1" parent="OLCK0erQXkYcPKT3nIOD-109">
          <mxGeometry x="493" y="350" width="170" height="60" as="geometry" />
        </mxCell>
        <mxCell id="OLCK0erQXkYcPKT3nIOD-126" value="Mengelola data pesanan&lt;br&gt;(create, read, update, delete)" style="ellipse;whiteSpace=wrap;html=1;" vertex="1" parent="OLCK0erQXkYcPKT3nIOD-109">
          <mxGeometry x="493" y="480" width="170" height="60" as="geometry" />
        </mxCell>
        <mxCell id="OLCK0erQXkYcPKT3nIOD-127" value="Mengelola data pembayaran&lt;br&gt;(create, read, update, delete)" style="ellipse;whiteSpace=wrap;html=1;" vertex="1" parent="OLCK0erQXkYcPKT3nIOD-109">
          <mxGeometry x="474.5" y="570" width="207" height="60" as="geometry" />
        </mxCell>
        <mxCell id="OLCK0erQXkYcPKT3nIOD-128" value="Mengelola data pendapatan dan laporan&lt;br&gt;(create, read, update, delete, print)" style="ellipse;whiteSpace=wrap;html=1;" vertex="1" parent="OLCK0erQXkYcPKT3nIOD-109">
          <mxGeometry x="460" y="730" width="235" height="70" as="geometry" />
        </mxCell>
        <mxCell id="OLCK0erQXkYcPKT3nIOD-129" value="Melihat produk" style="ellipse;whiteSpace=wrap;html=1;" vertex="1" parent="OLCK0erQXkYcPKT3nIOD-109">
          <mxGeometry x="278" y="100" width="170" height="60" as="geometry" />
        </mxCell>
        <mxCell id="OLCK0erQXkYcPKT3nIOD-130" value="&lt;font style=&quot;font-size: 9px;&quot;&gt;&amp;lt;&amp;lt; extend &amp;gt;&amp;gt;&lt;/font&gt;" style="endArrow=open;endSize=12;dashed=1;html=1;rounded=0;exitX=0.961;exitY=0.661;exitDx=0;exitDy=0;exitPerimeter=0;" edge="1" parent="OLCK0erQXkYcPKT3nIOD-109" source="OLCK0erQXkYcPKT3nIOD-123" target="OLCK0erQXkYcPKT3nIOD-129">
          <mxGeometry width="160" relative="1" as="geometry">
            <mxPoint x="134.25" y="156" as="sourcePoint" />
            <mxPoint x="223" y="180" as="targetPoint" />
          </mxGeometry>
        </mxCell>
        <mxCell id="OLCK0erQXkYcPKT3nIOD-131" value="Konfirmasi pembayaran" style="ellipse;whiteSpace=wrap;html=1;" vertex="1" parent="OLCK0erQXkYcPKT3nIOD-109">
          <mxGeometry x="367" y="652" width="93" height="38" as="geometry" />
        </mxCell>
        <mxCell id="OLCK0erQXkYcPKT3nIOD-132" value="&lt;font style=&quot;font-size: 10px;&quot;&gt;&amp;lt;&amp;lt; extend &amp;gt;&amp;gt;&lt;/font&gt;" style="endArrow=open;endSize=12;dashed=1;html=1;rounded=0;exitX=1;exitY=0.5;exitDx=0;exitDy=0;entryX=0;entryY=1;entryDx=0;entryDy=0;" edge="1" parent="OLCK0erQXkYcPKT3nIOD-109" source="OLCK0erQXkYcPKT3nIOD-131" target="OLCK0erQXkYcPKT3nIOD-127">
          <mxGeometry width="160" relative="1" as="geometry">
            <mxPoint x="443" y="676" as="sourcePoint" />
            <mxPoint x="518" y="712" as="targetPoint" />
          </mxGeometry>
        </mxCell>
        <mxCell id="OLCK0erQXkYcPKT3nIOD-133" value="&lt;font style=&quot;font-size: 10px;&quot;&gt;&amp;lt;&amp;lt; extend &amp;gt;&amp;gt;&lt;/font&gt;" style="endArrow=open;endSize=12;dashed=1;html=1;rounded=0;entryX=0.81;entryY=0.098;entryDx=0;entryDy=0;entryPerimeter=0;exitX=0.053;exitY=0.746;exitDx=0;exitDy=0;exitPerimeter=0;" edge="1" parent="OLCK0erQXkYcPKT3nIOD-109" source="OLCK0erQXkYcPKT3nIOD-131" target="OLCK0erQXkYcPKT3nIOD-124">
          <mxGeometry width="160" relative="1" as="geometry">
            <mxPoint x="326.7464539007092" y="890" as="sourcePoint" />
            <mxPoint x="343" y="712" as="targetPoint" />
          </mxGeometry>
        </mxCell>
        <mxCell id="OLCK0erQXkYcPKT3nIOD-134" value="" style="endArrow=none;html=1;rounded=0;exitX=0.5;exitY=1;exitDx=0;exitDy=0;" edge="1" parent="OLCK0erQXkYcPKT3nIOD-109" source="OLCK0erQXkYcPKT3nIOD-127">
          <mxGeometry width="50" height="50" relative="1" as="geometry">
            <mxPoint x="620" y="619" as="sourcePoint" />
            <mxPoint x="850" y="702" as="targetPoint" />
          </mxGeometry>
        </mxCell>
        <mxCell id="OLCK0erQXkYcPKT3nIOD-135" value="Kasir" style="shape=umlActor;verticalLabelPosition=bottom;verticalAlign=top;html=1;outlineConnect=0;" vertex="1" parent="1">
          <mxGeometry x="2678" y="802" width="30" height="60" as="geometry" />
        </mxCell>
        <mxCell id="OLCK0erQXkYcPKT3nIOD-136" value="" style="endArrow=none;html=1;rounded=0;exitX=1;exitY=1;exitDx=0;exitDy=0;" edge="1" parent="1" source="OLCK0erQXkYcPKT3nIOD-126">
          <mxGeometry width="50" height="50" relative="1" as="geometry">
            <mxPoint x="2509" y="1110" as="sourcePoint" />
            <mxPoint x="2678" y="832" as="targetPoint" />
          </mxGeometry>
        </mxCell>
      </root>
    </mxGraphModel>
  </diagram>
</mxfile>
